<?xml version="1.0" encoding="UTF-8"?>
<svg id="Layer_1" xmlns="http://www.w3.org/2000/svg" version="1.1" viewBox="0 0 1000 426.3">
  <!-- Generator: Adobe Illustrator 29.7.1, SVG Export Plug-In . SVG Version: 2.1.1 Build 8)  -->
  <g>
    <path d="M522,32.5v17.4h-29.5v81.1h-20.7V49.9h-29.6v-17.4h79.8Z"/>
    <path d="M592.8,131v-44h-38.5v44h-20.4V32.5h20.4v37.6h38.5v-37.6h20.5v98.5h-20.5Z"/>
    <path d="M701.5,88h-47.9v25.3h54.6v17.7h-74.7V32.5h72.3v17.4h-52.1v20.9h47.9v17.1Z"/>
    <path d="M522,156.4v17.4h-29.5v81.1h-20.7v-81.1h-29.6v-17.4h79.8Z"/>
    <path d="M592.8,254.9v-44h-38.5v44h-20.4v-98.5h20.4v37.6h38.5v-37.6h20.5v98.5h-20.5Z"/>
    <path d="M631.3,156.4h20.5v98.5h-20.5v-98.5Z"/>
    <path d="M712.8,216.3h-21.3v38.6h-20.1v-98.5h48.3c6.9.1,12.2,1,15.9,2.5,3.7,1.6,6.9,3.9,9.5,6.9,2.1,2.5,3.8,5.3,5.1,8.3,1.2,3,1.9,6.5,1.9,10.4s-1.2,9.3-3.5,13.8c-2.4,4.5-6.3,7.7-11.7,9.6,4.5,1.8,7.8,4.4,9.7,7.8,1.9,3.4,2.8,8.5,2.8,15.4v6.6c0,4.5.2,7.6.5,9.2.5,2.5,1.8,4.4,3.7,5.6v2.5h-22.7c-.6-2.2-1.1-3.9-1.3-5.3-.5-2.8-.8-5.6-.9-8.5v-9.2c-.2-6.3-1.4-10.5-3.6-12.6-2.2-2.1-6.3-3.1-12.4-3.1ZM725.3,198.4c4.1-1.9,6.1-5.6,6.1-11.1s-2-10-6-12c-2.2-1.2-5.6-1.7-10-1.7h-23.9v26.5h23.3c4.6,0,8.1-.5,10.4-1.6Z"/>
    <path d="M812.3,254.9h-42.5v-98.5h42.5c6.1,0,11.2.8,15.2,2.1,6.9,2.3,12.5,6.4,16.8,12.5,3.4,4.9,5.8,10.2,7,15.9s1.9,11.1,1.9,16.3c0,13.1-2.6,24.2-7.9,33.3-7.1,12.3-18.1,18.4-33,18.4ZM827.6,181.5c-3.2-5.3-9.4-8-18.8-8h-19v64.3h19c9.7,0,16.5-4.8,20.3-14.4,2.1-5.3,3.1-11.5,3.1-18.8s-1.6-17.7-4.7-23.1Z"/>
    <path d="M509.2,378.9v-44h-38.5v44h-20.4v-98.5h20.4v37.6h38.5v-37.6h20.5v98.5h-20.5Z"/>
    <path d="M592.9,381.6c-14.1,0-24.9-3.8-32.3-11.5-10-9.4-15-23-15-40.6s5-31.6,15-40.6c7.4-7.7,18.2-11.5,32.3-11.5s24.8,3.8,32.3,11.5c9.9,9,14.9,22.6,14.9,40.6s-5,31.2-14.9,40.6c-7.4,7.7-18.2,11.5-32.3,11.5ZM612.3,355.1c4.8-6,7.2-14.6,7.2-25.7s-2.4-19.6-7.2-25.6c-4.8-6-11.3-9.1-19.4-9.1s-14.7,3-19.5,9c-4.9,6-7.3,14.6-7.3,25.7s2.4,19.7,7.3,25.7c4.9,6,11.4,9,19.5,9s14.6-3,19.5-9Z"/>
    <path d="M714.1,340.9v-60.6h20.9v60.6c0,10.5-1.6,18.6-4.9,24.5-6.1,10.7-17.6,16-34.7,16s-28.7-5.3-34.8-16c-3.3-5.8-4.9-14-4.9-24.5v-60.6h20.9v60.6c0,6.8.8,11.7,2.4,14.8,2.5,5.5,7.9,8.3,16.3,8.3s13.8-2.8,16.2-8.3c1.6-3.1,2.4-8.1,2.4-14.8Z"/>
    <path d="M790.4,364.6c4.9,0,8.8-.5,11.8-1.6,5.7-2.1,8.6-5.9,8.6-11.4s-1.4-5.8-4.3-7.6c-2.9-1.7-7.3-3.3-13.4-4.6l-10.4-2.3c-10.3-2.3-17.3-4.8-21.3-7.6-6.6-4.5-10-11.7-10-21.3s3.2-16.2,9.6-22c6.4-5.8,15.8-8.8,28.3-8.8s19.2,2.8,26.6,8.3c7.3,5.5,11.2,13.5,11.5,24h-19.8c-.4-5.9-2.9-10.1-7.8-12.6-3.2-1.6-7.2-2.5-12-2.5s-9.5,1.1-12.7,3.2c-3.2,2.1-4.7,5.1-4.7,9s1.6,6.2,4.7,7.9c2,1.2,6.3,2.5,12.8,4.1l17,4.1c7.4,1.8,13.1,4.2,16.9,7.2,5.9,4.6,8.8,11.3,8.8,20.1s-3.4,16.5-10.3,22.4c-6.9,5.9-16.6,8.9-29.2,8.9s-22.9-2.9-30.3-8.8c-7.4-5.9-11-13.9-11-24.2h19.7c.6,4.5,1.8,7.9,3.7,10.1,3.3,4.1,9.1,6.1,17.2,6.1Z"/>
    <path d="M914.6,335.8h-47.9v25.3h54.6v17.7h-74.7v-98.5h72.3v17.4h-52.1v20.9h47.9v17.1Z"/>
  </g>
  <g>
    <path d="M144.4,24.5v363.8c-3.2-.8-6.5-4-9.1-6.1-26.5-21.1-51.9-44-77.9-65.7l-.4-219.4L144.4,24.5Z"/>
    <polygon points="378 24.5 378 388.3 291 316.5 290.6 228.5 314.7 207.5 290.6 185.5 290.6 97.1 378 24.5"/>
    <path d="M173.8,97.1v79.5c.1,0,51.8,29.8,51.8,29.8l-51.5,29.7v80.3c26.1,21.7,51.5,44.6,78,65.7,2.6,2.1,5.9,5.3,9.1,6.1V24.5l-87.4,72.6Z"/>
  </g>
</svg>